<svg width="32" height="32" viewBox="0 0 32 32" fill="none" xmlns="http://www.w3.org/2000/svg">
<mask id="path-1-inside-1_4_667" fill="white">
<path fill-rule="evenodd" clip-rule="evenodd" d="M5.48633 15.6753C4.80778 15.6821 4.1865 15.9961 3.718 16.508C3.31569 16.9475 3.02416 17.5318 2.90703 18.1898H8.48958C8.37118 17.5318 8.08092 16.9475 7.67861 16.508C7.21012 15.9974 6.58883 15.6821 5.91028 15.6753C5.84026 15.6848 5.77024 15.6903 5.69767 15.6903C5.62511 15.6903 5.55509 15.6848 5.48507 15.6753H5.48633ZM5.5398 14.9081H5.85807C6.04267 14.8726 6.20817 14.777 6.33547 14.6405C6.49843 14.4658 6.599 14.2255 6.599 13.9593C6.599 13.6931 6.49843 13.4529 6.33547 13.2782C6.17251 13.1034 5.94845 12.9956 5.7002 12.9956C5.45196 12.9956 5.22789 13.1034 5.06493 13.2782C4.90198 13.4529 4.80141 13.6932 4.80141 13.9593C4.80141 14.2255 4.90198 14.4658 5.06493 14.6405C5.19225 14.777 5.35647 14.8726 5.54233 14.9081H5.5398ZM11.8837 15.6753C11.2051 15.6821 10.5838 15.9961 10.1154 16.508C9.71304 16.9475 9.42152 17.5318 9.30438 18.1898H14.8869C14.7685 17.5318 14.4783 16.9475 14.076 16.508C13.6075 15.9974 12.9862 15.6821 12.3076 15.6753C12.2376 15.6848 12.1676 15.6903 12.095 15.6903C12.0225 15.6903 11.9524 15.6848 11.8824 15.6753H11.8837ZM11.9359 14.9081H12.2542C12.4388 14.8726 12.6043 14.777 12.7316 14.6405C12.8945 14.4658 12.9951 14.2255 12.9951 13.9593C12.9951 13.6931 12.8945 13.4529 12.7316 13.2782C12.5686 13.1034 12.3445 12.9956 12.0963 12.9956C11.848 12.9956 11.624 13.1034 11.461 13.2782C11.2981 13.4529 11.1975 13.6932 11.1975 13.9593C11.1975 14.2255 11.2981 14.4658 11.461 14.6405C11.5883 14.777 11.7526 14.8726 11.9384 14.9081H11.9359ZM18.2798 15.6753C17.6012 15.6821 16.9799 15.9961 16.5114 16.508C16.1091 16.9475 15.8176 17.5318 15.7005 18.1898H21.283C21.1646 17.5318 20.8744 16.9475 20.4721 16.508C20.0036 15.9974 19.3823 15.6821 18.7037 15.6753C18.6337 15.6848 18.5637 15.6903 18.4911 15.6903C18.4185 15.6903 18.3485 15.6848 18.2785 15.6753H18.2798ZM18.3332 14.9081H18.6515C18.8361 14.8726 19.0016 14.777 19.1289 14.6405C19.2919 14.4658 19.3924 14.2255 19.3924 13.9593C19.3924 13.6931 19.2919 13.4529 19.1289 13.2782C18.966 13.1034 18.7419 12.9956 18.4936 12.9956C18.2454 12.9956 18.0213 13.1034 17.8584 13.2782C17.6954 13.4529 17.5948 13.6932 17.5948 13.9593C17.5948 14.2255 17.6954 14.4658 17.8584 14.6405C17.9857 14.777 18.1499 14.8726 18.3358 14.9081H18.3332ZM10.7877 12.9451C10.5955 13.2304 10.4822 13.5798 10.4822 13.9593C10.4822 14.3934 10.6324 14.792 10.8794 15.0964C10.4007 15.2766 9.96785 15.5783 9.60886 15.9715C9.32114 16.2854 9.08052 16.6581 8.89847 17.0717C8.71768 16.6581 8.47579 16.2854 8.18807 15.9715C7.82778 15.5783 7.39493 15.2766 6.91754 15.0964C7.16452 14.792 7.31476 14.3948 7.31476 13.9607C7.31476 13.5812 7.20145 13.2317 7.00922 12.9464C7.20782 12.7471 7.43189 12.5833 7.67251 12.4591C7.98442 12.3007 8.32688 12.2106 8.68591 12.2065C8.75592 12.2161 8.82595 12.2216 8.89851 12.2216C8.97108 12.2216 9.0411 12.2161 9.11112 12.2065C9.47141 12.2106 9.81385 12.2994 10.1245 12.4591C10.3651 12.5819 10.5892 12.7471 10.7878 12.9464L10.7877 12.9451ZM8.73802 11.4394H9.05629C9.24089 11.4039 9.40639 11.3083 9.53369 11.1718C9.69664 10.9971 9.79722 10.7568 9.79722 10.4906C9.79722 10.2244 9.69664 9.98417 9.53369 9.80943C9.37073 9.6347 9.14667 9.52686 8.89842 9.52686C8.65017 9.52686 8.42611 9.6347 8.26315 9.80943C8.1002 9.98417 7.99962 10.2244 7.99962 10.4906C7.99962 10.7568 8.1002 10.9971 8.26315 11.1718C8.39046 11.3083 8.55469 11.4039 8.74055 11.4394H8.73802ZM17.1837 12.9451C16.9915 13.2304 16.8782 13.5798 16.8782 13.9593C16.8782 14.3934 17.0284 14.792 17.2754 15.0964C16.7967 15.2766 16.3638 15.5783 16.0049 15.9715C15.7171 16.2854 15.4752 16.6581 15.2945 17.0717C15.1137 16.6581 14.8718 16.2854 14.5841 15.9715C14.2238 15.5783 13.7909 15.2766 13.3135 15.0964C13.5605 14.792 13.7108 14.3948 13.7108 13.9593C13.7108 13.5798 13.5975 13.2304 13.4052 12.9451C13.6038 12.7458 13.8279 12.5819 14.0685 12.4577C14.3804 12.2994 14.7229 12.2093 15.0819 12.2052C15.1519 12.2147 15.2219 12.2202 15.2945 12.2202C15.3671 12.2202 15.4371 12.2147 15.5071 12.2052C15.8674 12.2093 16.2098 12.298 16.5205 12.4564C16.7611 12.5792 16.9852 12.7444 17.1838 12.9437L17.1837 12.9451ZM15.1353 11.4394H15.4536C15.6382 11.4039 15.8037 11.3083 15.931 11.1718C16.0939 10.9971 16.1945 10.7568 16.1945 10.4906C16.1945 10.2244 16.0939 9.98417 15.931 9.80943C15.768 9.6347 15.5439 9.52686 15.2957 9.52686C15.0474 9.52686 14.8234 9.6347 14.6604 9.80943C14.4975 9.98417 14.3969 10.2244 14.3969 10.4906C14.3969 10.7568 14.4975 10.9971 14.6604 11.1718C14.7877 11.3083 14.952 11.4039 15.1365 11.4394H15.1353ZM12.8654 12.4386C13.1302 12.1629 13.4332 11.9349 13.7629 11.767C13.8648 11.7151 13.9704 11.6687 14.0774 11.6277C13.8304 11.3233 13.6801 10.9261 13.6801 10.4906C13.6801 10.0128 13.8609 9.58007 14.1524 9.26611C14.444 8.9535 14.8476 8.75967 15.2944 8.75967C15.74 8.75967 16.1436 8.95351 16.4364 9.26611C16.7279 9.57872 16.9087 10.0115 16.9087 10.4906C16.9087 10.9261 16.7585 11.3233 16.5115 11.6277C16.6184 11.6673 16.7228 11.7137 16.8259 11.767C17.1556 11.9349 17.4574 12.1628 17.7234 12.4386C17.9526 12.3048 18.2149 12.2298 18.4937 12.2298C18.9393 12.2298 19.3428 12.4236 19.6356 12.7362C19.9272 13.0488 20.108 13.4815 20.108 13.9607C20.108 14.3948 19.9577 14.7934 19.7107 15.0965C20.1894 15.2766 20.6223 15.5783 20.9813 15.9715C21.5822 16.6267 21.9794 17.5359 22.0468 18.5474C22.0608 18.759 21.9132 18.9419 21.7158 18.957C21.7069 18.9583 21.6993 18.9583 21.6904 18.9583V18.9597L2.50099 18.957C2.30366 18.957 2.14323 18.785 2.14323 18.5734C2.14323 18.5556 2.14451 18.5392 2.14705 18.5229C2.21962 17.5209 2.61555 16.6213 3.21135 15.9715C3.57165 15.5783 4.00449 15.2766 4.48189 15.0964C4.23491 14.792 4.08467 14.3948 4.08467 13.9593C4.08467 13.4815 4.26545 13.0488 4.55698 12.7348C4.84852 12.4222 5.25208 12.2284 5.69894 12.2284C5.97775 12.2284 6.24002 12.3048 6.46917 12.4372C6.73398 12.1615 7.03698 11.9335 7.3667 11.7656C7.46855 11.7137 7.57422 11.6673 7.68116 11.6264C7.43418 11.3219 7.28393 10.9247 7.28393 10.4892C7.28393 10.0114 7.46471 9.5787 7.75625 9.26474C8.04778 8.95213 8.45135 8.75829 8.89821 8.75829C9.3438 8.75829 9.74737 8.95214 10.0402 9.26474C10.3317 9.57735 10.5125 10.0101 10.5125 10.4892C10.5125 10.9247 10.3623 11.3219 10.1153 11.6264C10.2222 11.6659 10.3266 11.7124 10.4297 11.7656C10.7594 11.9335 11.0612 12.1615 11.3272 12.4372C11.5564 12.3035 11.8187 12.2284 12.0975 12.2284C12.3763 12.2284 12.6386 12.3048 12.8677 12.4372L12.8654 12.4386ZM26.1261 5.51499C26.3234 5.51499 26.4839 5.687 26.4839 5.8986C26.4839 6.11019 26.3234 6.28221 26.1261 6.28221H24.191V8.35716C24.191 8.56876 24.0306 8.74077 23.8332 8.74077C23.6359 8.74077 23.4755 8.56877 23.4755 8.35716V6.28221H21.5404C21.343 6.28221 21.1826 6.11021 21.1826 5.8986C21.1826 5.68701 21.343 5.51499 21.5404 5.51499H23.4755V3.44004C23.4755 3.22845 23.6359 3.05643 23.8332 3.05643C24.0306 3.05643 24.191 3.22843 24.191 3.44004V5.51499H26.1261ZM27.2172 2.27013C26.3515 1.34188 25.1547 0.767148 23.8332 0.767148C22.5117 0.767148 21.315 1.34184 20.4493 2.27013C19.9489 2.80663 19.5581 3.46188 19.3187 4.19356C19.1443 4.7273 19.0488 5.30066 19.0488 5.89857C19.0488 7.31555 19.5848 8.59875 20.4505 9.52707C21.3162 10.4554 22.5129 11.0301 23.8345 11.0301C25.1559 11.0301 26.3527 10.4554 27.2184 9.52707C28.0842 8.59879 28.6201 7.31562 28.6201 5.89857C28.6201 4.48159 28.0841 3.19838 27.2184 2.27006L27.2172 2.27013ZM23.4757 11.7836V21.6302C23.4757 21.9551 23.3522 22.2499 23.1523 22.4643C22.9524 22.6786 22.6775 22.811 22.3745 22.811H12.4227C12.3489 22.811 12.2801 22.8356 12.2228 22.8765L5.63453 26.9555V23.1945C5.63453 22.9829 5.47412 22.8109 5.27677 22.8109H1.81787C1.51487 22.8109 1.23989 22.6785 1.04001 22.4642C0.840129 22.2499 0.716644 21.955 0.716644 21.6301V5.63507C0.716644 5.31017 0.840136 5.01533 1.04001 4.801C1.23989 4.58667 1.51487 4.45426 1.81787 4.45426H18.5007C18.3925 4.91566 18.3339 5.40027 18.3339 5.89854C18.3339 7.52712 18.9501 9.00141 19.9444 10.0691C20.861 11.0519 22.0994 11.6895 23.4757 11.7836ZM23.8334 0C25.3522 0 26.7272 0.660701 27.7229 1.72685C28.7184 2.79437 29.3333 4.26866 29.3333 5.89738C29.3333 7.5261 28.7172 9.00025 27.7229 10.0679C26.8062 11.0508 25.5675 11.6883 24.1913 11.7825V21.629C24.1913 22.1655 23.9863 22.6515 23.6579 23.005C23.3281 23.3586 22.8749 23.577 22.3746 23.577H12.517L5.45647 27.9481C5.28588 28.0546 5.06818 27.9918 4.96888 27.8089C4.93578 27.7488 4.9205 27.6819 4.9205 27.6164H4.91922V23.5759H1.8167C1.31636 23.5759 0.863146 23.3561 0.533421 23.0039C0.203695 22.6503 0 22.1644 0 21.6279V5.63562C0 5.09912 0.20497 4.61315 0.533421 4.2596C0.863146 3.90604 1.31636 3.68763 1.8167 3.68763H18.7322C19.011 2.94774 19.426 2.28295 19.9442 1.7287C20.9398 0.661183 22.3147 0.00184535 23.8336 0.00184535L23.8334 0Z"/>
</mask>
<path fill-rule="evenodd" clip-rule="evenodd" d="M5.48633 15.6753C4.80778 15.6821 4.1865 15.9961 3.718 16.508C3.31569 16.9475 3.02416 17.5318 2.90703 18.1898H8.48958C8.37118 17.5318 8.08092 16.9475 7.67861 16.508C7.21012 15.9974 6.58883 15.6821 5.91028 15.6753C5.84026 15.6848 5.77024 15.6903 5.69767 15.6903C5.62511 15.6903 5.55509 15.6848 5.48507 15.6753H5.48633ZM5.5398 14.9081H5.85807C6.04267 14.8726 6.20817 14.777 6.33547 14.6405C6.49843 14.4658 6.599 14.2255 6.599 13.9593C6.599 13.6931 6.49843 13.4529 6.33547 13.2782C6.17251 13.1034 5.94845 12.9956 5.7002 12.9956C5.45196 12.9956 5.22789 13.1034 5.06493 13.2782C4.90198 13.4529 4.80141 13.6932 4.80141 13.9593C4.80141 14.2255 4.90198 14.4658 5.06493 14.6405C5.19225 14.777 5.35647 14.8726 5.54233 14.9081H5.5398ZM11.8837 15.6753C11.2051 15.6821 10.5838 15.9961 10.1154 16.508C9.71304 16.9475 9.42152 17.5318 9.30438 18.1898H14.8869C14.7685 17.5318 14.4783 16.9475 14.076 16.508C13.6075 15.9974 12.9862 15.6821 12.3076 15.6753C12.2376 15.6848 12.1676 15.6903 12.095 15.6903C12.0225 15.6903 11.9524 15.6848 11.8824 15.6753H11.8837ZM11.9359 14.9081H12.2542C12.4388 14.8726 12.6043 14.777 12.7316 14.6405C12.8945 14.4658 12.9951 14.2255 12.9951 13.9593C12.9951 13.6931 12.8945 13.4529 12.7316 13.2782C12.5686 13.1034 12.3445 12.9956 12.0963 12.9956C11.848 12.9956 11.624 13.1034 11.461 13.2782C11.2981 13.4529 11.1975 13.6932 11.1975 13.9593C11.1975 14.2255 11.2981 14.4658 11.461 14.6405C11.5883 14.777 11.7526 14.8726 11.9384 14.9081H11.9359ZM18.2798 15.6753C17.6012 15.6821 16.9799 15.9961 16.5114 16.508C16.1091 16.9475 15.8176 17.5318 15.7005 18.1898H21.283C21.1646 17.5318 20.8744 16.9475 20.4721 16.508C20.0036 15.9974 19.3823 15.6821 18.7037 15.6753C18.6337 15.6848 18.5637 15.6903 18.4911 15.6903C18.4185 15.6903 18.3485 15.6848 18.2785 15.6753H18.2798ZM18.3332 14.9081H18.6515C18.8361 14.8726 19.0016 14.777 19.1289 14.6405C19.2919 14.4658 19.3924 14.2255 19.3924 13.9593C19.3924 13.6931 19.2919 13.4529 19.1289 13.2782C18.966 13.1034 18.7419 12.9956 18.4936 12.9956C18.2454 12.9956 18.0213 13.1034 17.8584 13.2782C17.6954 13.4529 17.5948 13.6932 17.5948 13.9593C17.5948 14.2255 17.6954 14.4658 17.8584 14.6405C17.9857 14.777 18.1499 14.8726 18.3358 14.9081H18.3332ZM10.7877 12.9451C10.5955 13.2304 10.4822 13.5798 10.4822 13.9593C10.4822 14.3934 10.6324 14.792 10.8794 15.0964C10.4007 15.2766 9.96785 15.5783 9.60886 15.9715C9.32114 16.2854 9.08052 16.6581 8.89847 17.0717C8.71768 16.6581 8.47579 16.2854 8.18807 15.9715C7.82778 15.5783 7.39493 15.2766 6.91754 15.0964C7.16452 14.792 7.31476 14.3948 7.31476 13.9607C7.31476 13.5812 7.20145 13.2317 7.00922 12.9464C7.20782 12.7471 7.43189 12.5833 7.67251 12.4591C7.98442 12.3007 8.32688 12.2106 8.68591 12.2065C8.75592 12.2161 8.82595 12.2216 8.89851 12.2216C8.97108 12.2216 9.0411 12.2161 9.11112 12.2065C9.47141 12.2106 9.81385 12.2994 10.1245 12.4591C10.3651 12.5819 10.5892 12.7471 10.7878 12.9464L10.7877 12.9451ZM8.73802 11.4394H9.05629C9.24089 11.4039 9.40639 11.3083 9.53369 11.1718C9.69664 10.9971 9.79722 10.7568 9.79722 10.4906C9.79722 10.2244 9.69664 9.98417 9.53369 9.80943C9.37073 9.6347 9.14667 9.52686 8.89842 9.52686C8.65017 9.52686 8.42611 9.6347 8.26315 9.80943C8.1002 9.98417 7.99962 10.2244 7.99962 10.4906C7.99962 10.7568 8.1002 10.9971 8.26315 11.1718C8.39046 11.3083 8.55469 11.4039 8.74055 11.4394H8.73802ZM17.1837 12.9451C16.9915 13.2304 16.8782 13.5798 16.8782 13.9593C16.8782 14.3934 17.0284 14.792 17.2754 15.0964C16.7967 15.2766 16.3638 15.5783 16.0049 15.9715C15.7171 16.2854 15.4752 16.6581 15.2945 17.0717C15.1137 16.6581 14.8718 16.2854 14.5841 15.9715C14.2238 15.5783 13.7909 15.2766 13.3135 15.0964C13.5605 14.792 13.7108 14.3948 13.7108 13.9593C13.7108 13.5798 13.5975 13.2304 13.4052 12.9451C13.6038 12.7458 13.8279 12.5819 14.0685 12.4577C14.3804 12.2994 14.7229 12.2093 15.0819 12.2052C15.1519 12.2147 15.2219 12.2202 15.2945 12.2202C15.3671 12.2202 15.4371 12.2147 15.5071 12.2052C15.8674 12.2093 16.2098 12.298 16.5205 12.4564C16.7611 12.5792 16.9852 12.7444 17.1838 12.9437L17.1837 12.9451ZM15.1353 11.4394H15.4536C15.6382 11.4039 15.8037 11.3083 15.931 11.1718C16.0939 10.9971 16.1945 10.7568 16.1945 10.4906C16.1945 10.2244 16.0939 9.98417 15.931 9.80943C15.768 9.6347 15.5439 9.52686 15.2957 9.52686C15.0474 9.52686 14.8234 9.6347 14.6604 9.80943C14.4975 9.98417 14.3969 10.2244 14.3969 10.4906C14.3969 10.7568 14.4975 10.9971 14.6604 11.1718C14.7877 11.3083 14.952 11.4039 15.1365 11.4394H15.1353ZM12.8654 12.4386C13.1302 12.1629 13.4332 11.9349 13.7629 11.767C13.8648 11.7151 13.9704 11.6687 14.0774 11.6277C13.8304 11.3233 13.6801 10.9261 13.6801 10.4906C13.6801 10.0128 13.8609 9.58007 14.1524 9.26611C14.444 8.9535 14.8476 8.75967 15.2944 8.75967C15.74 8.75967 16.1436 8.95351 16.4364 9.26611C16.7279 9.57872 16.9087 10.0115 16.9087 10.4906C16.9087 10.9261 16.7585 11.3233 16.5115 11.6277C16.6184 11.6673 16.7228 11.7137 16.8259 11.767C17.1556 11.9349 17.4574 12.1628 17.7234 12.4386C17.9526 12.3048 18.2149 12.2298 18.4937 12.2298C18.9393 12.2298 19.3428 12.4236 19.6356 12.7362C19.9272 13.0488 20.108 13.4815 20.108 13.9607C20.108 14.3948 19.9577 14.7934 19.7107 15.0965C20.1894 15.2766 20.6223 15.5783 20.9813 15.9715C21.5822 16.6267 21.9794 17.5359 22.0468 18.5474C22.0608 18.759 21.9132 18.9419 21.7158 18.957C21.7069 18.9583 21.6993 18.9583 21.6904 18.9583V18.9597L2.50099 18.957C2.30366 18.957 2.14323 18.785 2.14323 18.5734C2.14323 18.5556 2.14451 18.5392 2.14705 18.5229C2.21962 17.5209 2.61555 16.6213 3.21135 15.9715C3.57165 15.5783 4.00449 15.2766 4.48189 15.0964C4.23491 14.792 4.08467 14.3948 4.08467 13.9593C4.08467 13.4815 4.26545 13.0488 4.55698 12.7348C4.84852 12.4222 5.25208 12.2284 5.69894 12.2284C5.97775 12.2284 6.24002 12.3048 6.46917 12.4372C6.73398 12.1615 7.03698 11.9335 7.3667 11.7656C7.46855 11.7137 7.57422 11.6673 7.68116 11.6264C7.43418 11.3219 7.28393 10.9247 7.28393 10.4892C7.28393 10.0114 7.46471 9.5787 7.75625 9.26474C8.04778 8.95213 8.45135 8.75829 8.89821 8.75829C9.3438 8.75829 9.74737 8.95214 10.0402 9.26474C10.3317 9.57735 10.5125 10.0101 10.5125 10.4892C10.5125 10.9247 10.3623 11.3219 10.1153 11.6264C10.2222 11.6659 10.3266 11.7124 10.4297 11.7656C10.7594 11.9335 11.0612 12.1615 11.3272 12.4372C11.5564 12.3035 11.8187 12.2284 12.0975 12.2284C12.3763 12.2284 12.6386 12.3048 12.8677 12.4372L12.8654 12.4386ZM26.1261 5.51499C26.3234 5.51499 26.4839 5.687 26.4839 5.8986C26.4839 6.11019 26.3234 6.28221 26.1261 6.28221H24.191V8.35716C24.191 8.56876 24.0306 8.74077 23.8332 8.74077C23.6359 8.74077 23.4755 8.56877 23.4755 8.35716V6.28221H21.5404C21.343 6.28221 21.1826 6.11021 21.1826 5.8986C21.1826 5.68701 21.343 5.51499 21.5404 5.51499H23.4755V3.44004C23.4755 3.22845 23.6359 3.05643 23.8332 3.05643C24.0306 3.05643 24.191 3.22843 24.191 3.44004V5.51499H26.1261ZM27.2172 2.27013C26.3515 1.34188 25.1547 0.767148 23.8332 0.767148C22.5117 0.767148 21.315 1.34184 20.4493 2.27013C19.9489 2.80663 19.5581 3.46188 19.3187 4.19356C19.1443 4.7273 19.0488 5.30066 19.0488 5.89857C19.0488 7.31555 19.5848 8.59875 20.4505 9.52707C21.3162 10.4554 22.5129 11.0301 23.8345 11.0301C25.1559 11.0301 26.3527 10.4554 27.2184 9.52707C28.0842 8.59879 28.6201 7.31562 28.6201 5.89857C28.6201 4.48159 28.0841 3.19838 27.2184 2.27006L27.2172 2.27013ZM23.4757 11.7836V21.6302C23.4757 21.9551 23.3522 22.2499 23.1523 22.4643C22.9524 22.6786 22.6775 22.811 22.3745 22.811H12.4227C12.3489 22.811 12.2801 22.8356 12.2228 22.8765L5.63453 26.9555V23.1945C5.63453 22.9829 5.47412 22.8109 5.27677 22.8109H1.81787C1.51487 22.8109 1.23989 22.6785 1.04001 22.4642C0.840129 22.2499 0.716644 21.955 0.716644 21.6301V5.63507C0.716644 5.31017 0.840136 5.01533 1.04001 4.801C1.23989 4.58667 1.51487 4.45426 1.81787 4.45426H18.5007C18.3925 4.91566 18.3339 5.40027 18.3339 5.89854C18.3339 7.52712 18.9501 9.00141 19.9444 10.0691C20.861 11.0519 22.0994 11.6895 23.4757 11.7836ZM23.8334 0C25.3522 0 26.7272 0.660701 27.7229 1.72685C28.7184 2.79437 29.3333 4.26866 29.3333 5.89738C29.3333 7.5261 28.7172 9.00025 27.7229 10.0679C26.8062 11.0508 25.5675 11.6883 24.1913 11.7825V21.629C24.1913 22.1655 23.9863 22.6515 23.6579 23.005C23.3281 23.3586 22.8749 23.577 22.3746 23.577H12.517L5.45647 27.9481C5.28588 28.0546 5.06818 27.9918 4.96888 27.8089C4.93578 27.7488 4.9205 27.6819 4.9205 27.6164H4.91922V23.5759H1.8167C1.31636 23.5759 0.863146 23.3561 0.533421 23.0039C0.203695 22.6503 0 22.1644 0 21.6279V5.63562C0 5.09912 0.20497 4.61315 0.533421 4.2596C0.863146 3.90604 1.31636 3.68763 1.8167 3.68763H18.7322C19.011 2.94774 19.426 2.28295 19.9442 1.7287C20.9398 0.661183 22.3147 0.00184535 23.8336 0.00184535L23.8334 0Z" fill="black" stroke="#FFC39B" stroke-width="3" mask="url(#path-1-inside-1_4_667)"/>
</svg>
