<svg width="32" height="32" viewBox="0 0 32 32" fill="none" xmlns="http://www.w3.org/2000/svg">
<mask id="path-1-inside-1_4_672" fill="white">
<path d="M29.3333 16.0859C29.3333 14.9607 28.6301 14.0138 27.6787 13.7367C28.0852 13.2965 28.337 12.6854 28.337 12.0118C28.337 10.6702 27.3388 9.57909 26.1104 9.57909H17.8391C20.0279 5.11594 18.5747 2.19565 18.0585 1.38147C17.5082 0.514252 16.6449 0 15.7493 0H15.7295C15.0191 0.00569243 14.4058 0.343464 14.0479 0.924108C13.5713 1.70025 13.5821 2.53516 13.5929 3.34166C13.6037 4.21647 13.6163 5.11973 13.066 6.12545C11.7765 8.48229 9.57513 10.1256 6.52305 11.0192V9.96228C6.52305 9.74406 6.35579 9.56568 6.14716 9.56568H0.375886C0.169059 9.56568 0 9.74216 0 9.96228V26.2093C0 26.4276 0.167259 26.6059 0.375886 26.6059H6.14716C6.35399 26.6059 6.52305 26.4295 6.52305 26.2093V24.7786C7.84314 26.0158 9.39165 26.6667 11.0462 26.6667H23.4774C24.7058 26.6667 25.7039 25.5755 25.7039 24.234C25.7039 23.602 25.4791 23.0252 25.1158 22.5925C26.3424 22.5925 27.3405 21.5014 27.3405 20.1598C27.3405 19.5279 27.1157 18.951 26.7525 18.5184H27.1068C28.3351 18.5184 29.3333 17.4275 29.3333 16.0859ZM5.77308 25.8128H0.753654V10.3571H5.77308V25.8128ZM26.5907 20.1597C26.5907 21.0649 25.9288 21.8011 25.1159 21.8011H18.1038C17.897 21.8011 17.7279 21.9776 17.7279 22.1977C17.7279 22.416 17.8952 22.5943 18.1038 22.5943H23.4778C24.2907 22.5943 24.9525 23.3306 24.9525 24.2358C24.9525 25.1409 24.2907 25.8772 23.4778 25.8772H11.0466C9.37042 25.8772 7.80935 25.1162 6.52341 23.676V11.8408C9.87398 10.9053 12.2947 9.11965 13.7155 6.5239C14.3684 5.33033 14.3558 4.26957 14.3432 3.33405C14.3342 2.58259 14.3252 1.93173 14.6777 1.35676C14.8953 1.00191 15.2802 0.796988 15.7352 0.79315C16.3863 0.791253 17.0212 1.17267 17.4348 1.82355C17.9132 2.5769 19.289 5.37774 16.8809 9.77827C16.8143 9.90162 16.8143 10.0515 16.8809 10.1749C16.9474 10.2982 17.0715 10.3722 17.2064 10.3722H26.1108C26.9237 10.3722 27.5856 11.1085 27.5856 12.0136C27.5856 12.9188 26.9237 13.6551 26.1108 13.6551H20.3593C20.1525 13.6551 19.9834 13.8315 19.9834 14.0517C19.9834 14.2699 20.1507 14.4483 20.3593 14.4483H27.1071C27.92 14.4483 28.5819 15.1845 28.5819 16.0897C28.5819 16.9948 27.92 17.7311 27.1071 17.7311H20.0951C19.8882 17.7311 19.7192 17.9076 19.7192 18.1277C19.7192 18.3459 19.8864 18.5243 20.0951 18.5243H25.1126C25.9255 18.5243 26.5874 19.2605 26.5874 20.1657L26.5907 20.1597ZM2.88859 14.1671V12.0987C2.88859 11.8805 3.05585 11.7021 3.26447 11.7021C3.4713 11.7021 3.64036 11.8786 3.64036 12.0987V14.1671C3.64036 14.3853 3.4731 14.5637 3.26447 14.5637C3.05765 14.5637 2.88859 14.3872 2.88859 14.1671Z"/>
</mask>
<path d="M29.3333 16.0859C29.3333 14.9607 28.6301 14.0138 27.6787 13.7367C28.0852 13.2965 28.337 12.6854 28.337 12.0118C28.337 10.6702 27.3388 9.57909 26.1104 9.57909H17.8391C20.0279 5.11594 18.5747 2.19565 18.0585 1.38147C17.5082 0.514252 16.6449 0 15.7493 0H15.7295C15.0191 0.00569243 14.4058 0.343464 14.0479 0.924108C13.5713 1.70025 13.5821 2.53516 13.5929 3.34166C13.6037 4.21647 13.6163 5.11973 13.066 6.12545C11.7765 8.48229 9.57513 10.1256 6.52305 11.0192V9.96228C6.52305 9.74406 6.35579 9.56568 6.14716 9.56568H0.375886C0.169059 9.56568 0 9.74216 0 9.96228V26.2093C0 26.4276 0.167259 26.6059 0.375886 26.6059H6.14716C6.35399 26.6059 6.52305 26.4295 6.52305 26.2093V24.7786C7.84314 26.0158 9.39165 26.6667 11.0462 26.6667H23.4774C24.7058 26.6667 25.7039 25.5755 25.7039 24.234C25.7039 23.602 25.4791 23.0252 25.1158 22.5925C26.3424 22.5925 27.3405 21.5014 27.3405 20.1598C27.3405 19.5279 27.1157 18.951 26.7525 18.5184H27.1068C28.3351 18.5184 29.3333 17.4275 29.3333 16.0859ZM5.77308 25.8128H0.753654V10.3571H5.77308V25.8128ZM26.5907 20.1597C26.5907 21.0649 25.9288 21.8011 25.1159 21.8011H18.1038C17.897 21.8011 17.7279 21.9776 17.7279 22.1977C17.7279 22.416 17.8952 22.5943 18.1038 22.5943H23.4778C24.2907 22.5943 24.9525 23.3306 24.9525 24.2358C24.9525 25.1409 24.2907 25.8772 23.4778 25.8772H11.0466C9.37042 25.8772 7.80935 25.1162 6.52341 23.676V11.8408C9.87398 10.9053 12.2947 9.11965 13.7155 6.5239C14.3684 5.33033 14.3558 4.26957 14.3432 3.33405C14.3342 2.58259 14.3252 1.93173 14.6777 1.35676C14.8953 1.00191 15.2802 0.796988 15.7352 0.79315C16.3863 0.791253 17.0212 1.17267 17.4348 1.82355C17.9132 2.5769 19.289 5.37774 16.8809 9.77827C16.8143 9.90162 16.8143 10.0515 16.8809 10.1749C16.9474 10.2982 17.0715 10.3722 17.2064 10.3722H26.1108C26.9237 10.3722 27.5856 11.1085 27.5856 12.0136C27.5856 12.9188 26.9237 13.6551 26.1108 13.6551H20.3593C20.1525 13.6551 19.9834 13.8315 19.9834 14.0517C19.9834 14.2699 20.1507 14.4483 20.3593 14.4483H27.1071C27.92 14.4483 28.5819 15.1845 28.5819 16.0897C28.5819 16.9948 27.92 17.7311 27.1071 17.7311H20.0951C19.8882 17.7311 19.7192 17.9076 19.7192 18.1277C19.7192 18.3459 19.8864 18.5243 20.0951 18.5243H25.1126C25.9255 18.5243 26.5874 19.2605 26.5874 20.1657L26.5907 20.1597ZM2.88859 14.1671V12.0987C2.88859 11.8805 3.05585 11.7021 3.26447 11.7021C3.4713 11.7021 3.64036 11.8786 3.64036 12.0987V14.1671C3.64036 14.3853 3.4731 14.5637 3.26447 14.5637C3.05765 14.5637 2.88859 14.3872 2.88859 14.1671Z" fill="black"/>
<path d="M27.6787 13.7367L26.944 13.0584L25.8482 14.2452L27.3991 14.6969L27.6787 13.7367ZM17.8391 9.57909L16.9413 9.13878L16.2349 10.5791H17.8391V9.57909ZM18.0585 1.38147L18.9031 0.84602L18.9029 0.845665L18.0585 1.38147ZM15.7295 0V-1.00003L15.7215 -0.999968L15.7295 0ZM14.0479 0.924108L13.1966 0.399415L13.1958 0.400811L14.0479 0.924108ZM13.5929 3.34166L14.5928 3.32933L14.5928 3.3283L13.5929 3.34166ZM13.066 6.12545L12.1887 5.64543L12.1887 5.64546L13.066 6.12545ZM6.52305 11.0192H5.52305V12.354L6.80405 11.979L6.52305 11.0192ZM6.52305 24.7786L7.20689 24.0489L5.52305 22.4708V24.7786H6.52305ZM25.1158 22.5925V21.5925H22.9704L24.35 23.2356L25.1158 22.5925ZM26.7525 18.5184V17.5184H24.607L25.9866 19.1614L26.7525 18.5184ZM5.77308 25.8128V26.8128H6.77308V25.8128H5.77308ZM0.753654 25.8128H-0.246346V26.8128H0.753654V25.8128ZM0.753654 10.3571V9.35708H-0.246346V10.3571H0.753654ZM5.77308 10.3571H6.77308V9.35708H5.77308V10.3571ZM26.5907 20.1597H27.5907L25.713 19.6804L26.5907 20.1597ZM6.52341 23.676H5.52341V24.0575L5.77747 24.342L6.52341 23.676ZM6.52341 11.8408L6.25448 10.8777L5.52341 11.0818V11.8408H6.52341ZM13.7155 6.5239L14.5927 7.00405L14.5929 7.00379L13.7155 6.5239ZM14.3432 3.33405L13.3433 3.34601L13.3433 3.34748L14.3432 3.33405ZM14.6777 1.35676L13.8253 0.833969L13.8252 0.834089L14.6777 1.35676ZM15.7352 0.79315L15.7323 -0.206861L15.7268 -0.206814L15.7352 0.79315ZM17.4348 1.82355L18.279 1.28746L18.2788 1.28719L17.4348 1.82355ZM16.8809 9.77827L16.0036 9.29821L16.0008 9.30347L16.8809 9.77827ZM26.5874 20.1657H25.5874L27.465 20.6451L26.5874 20.1657ZM29.3333 16.0859H30.3333C30.3333 14.5546 29.3725 13.1884 27.9583 12.7766L27.6787 13.7367L27.3991 14.6969C27.8878 14.8391 28.3333 15.3667 28.3333 16.0859H29.3333ZM27.6787 13.7367L28.4134 14.4151C28.9917 13.7888 29.337 12.935 29.337 12.0118H28.337H27.337C27.337 12.4358 27.1786 12.8042 26.944 13.0584L27.6787 13.7367ZM28.337 12.0118H29.337C29.337 10.2033 27.9727 8.57909 26.1104 8.57909V9.57909V10.5791C26.7048 10.5791 27.337 11.1371 27.337 12.0118H28.337ZM26.1104 9.57909V8.57909H17.8391V9.57909V10.5791H26.1104V9.57909ZM17.8391 9.57909L18.737 10.0194C21.1147 5.17096 19.5575 1.87823 18.9031 0.84602L18.0585 1.38147L17.214 1.91693C17.5919 2.51307 18.9411 5.06092 16.9413 9.13878L17.8391 9.57909ZM18.0585 1.38147L18.9029 0.845665C18.1994 -0.262934 17.0402 -1 15.7493 -1V0V1C16.2497 1 16.817 1.29144 17.2142 1.91728L18.0585 1.38147ZM15.7493 0V-1H15.7295V0V1H15.7493V0ZM15.7295 0L15.7215 -0.999968C14.683 -0.991647 13.7434 -0.487673 13.1966 0.399416L14.0479 0.924108L14.8992 1.4488C15.0682 1.1746 15.3551 1.00303 15.7375 0.999968L15.7295 0ZM14.0479 0.924108L13.1958 0.400811C12.5459 1.45903 12.5827 2.58552 12.593 3.35503L13.5929 3.34166L14.5928 3.3283C14.5816 2.48481 14.5967 1.94147 14.9001 1.44741L14.0479 0.924108ZM13.5929 3.34166L12.593 3.354C12.6038 4.23135 12.6008 4.8923 12.1887 5.64543L13.066 6.12545L13.9432 6.60548C14.6318 5.34716 14.6036 4.20158 14.5928 3.32933L13.5929 3.34166ZM13.066 6.12545L12.1887 5.64546C11.05 7.7266 9.09095 9.22538 6.24205 10.0595L6.52305 11.0192L6.80405 11.979C10.0593 11.0258 12.5029 9.23797 13.9433 6.60545L13.066 6.12545ZM6.52305 11.0192H7.52305V9.96228H6.52305H5.52305V11.0192H6.52305ZM6.52305 9.96228H7.52305C7.52305 9.24619 6.96097 8.56568 6.14716 8.56568V9.56568V10.5657C5.75061 10.5657 5.52305 10.2419 5.52305 9.96228H6.52305ZM6.14716 9.56568V8.56568H0.375886V9.56568V10.5657H6.14716V9.56568ZM0.375886 9.56568V8.56568C-0.430059 8.56568 -1 9.2379 -1 9.96228H0H1C1 10.2464 0.768177 10.5657 0.375886 10.5657V9.56568ZM0 9.96228H-1V26.2093H0H1V9.96228H0ZM0 26.2093H-1C-1 26.9254 -0.437917 27.6059 0.375886 27.6059V26.6059V25.6059C0.772435 25.6059 1 25.9297 1 26.2093H0ZM0.375886 26.6059V27.6059H6.14716V26.6059V25.6059H0.375886V26.6059ZM6.14716 26.6059V27.6059C6.95311 27.6059 7.52305 26.9337 7.52305 26.2093H6.52305H5.52305C5.52305 25.9252 5.75487 25.6059 6.14716 25.6059V26.6059ZM6.52305 26.2093H7.52305V24.7786H6.52305H5.52305V26.2093H6.52305ZM6.52305 24.7786L5.83921 25.5082C7.32367 26.8995 9.11029 27.6667 11.0462 27.6667V26.6667V25.6667C9.67301 25.6667 8.36261 25.1321 7.20689 24.0489L6.52305 24.7786ZM11.0462 26.6667V27.6667H23.4774V26.6667V25.6667H11.0462V26.6667ZM23.4774 26.6667V27.6667C25.3397 27.6667 26.7039 26.0425 26.7039 24.234H25.7039H24.7039C24.7039 25.1086 24.0718 25.6667 23.4774 25.6667V26.6667ZM25.7039 24.234H26.7039C26.7039 23.364 26.3943 22.5601 25.8816 21.9495L25.1158 22.5925L24.35 23.2356C24.5639 23.4903 24.7039 23.8401 24.7039 24.234H25.7039ZM25.1158 22.5925V23.5925C26.9769 23.5925 28.3405 21.9678 28.3405 20.1598H27.3405H26.3405C26.3405 21.035 25.708 21.5925 25.1158 21.5925V22.5925ZM27.3405 20.1598H28.3405C28.3405 19.2898 28.031 18.4859 27.5183 17.8754L26.7525 18.5184L25.9866 19.1614C26.2005 19.4162 26.3405 19.766 26.3405 20.1598H27.3405ZM26.7525 18.5184V19.5184H27.1068V18.5184V17.5184H26.7525V18.5184ZM27.1068 18.5184V19.5184C28.9689 19.5184 30.3333 17.8946 30.3333 16.0859H29.3333H28.3333C28.3333 16.9604 27.7013 17.5184 27.1068 17.5184V18.5184ZM5.77308 25.8128V24.8128H0.753654V25.8128V26.8128H5.77308V25.8128ZM0.753654 25.8128H1.75365V10.3571H0.753654H-0.246346V25.8128H0.753654ZM0.753654 10.3571V11.3571H5.77308V10.3571V9.35708H0.753654V10.3571ZM5.77308 10.3571H4.77308V25.8128H5.77308H6.77308V10.3571H5.77308ZM26.5907 20.1597H25.5907C25.5907 20.6158 25.2787 20.8011 25.1159 20.8011V21.8011V22.8011C26.579 22.8011 27.5907 21.5139 27.5907 20.1597H26.5907ZM25.1159 21.8011V20.8011H18.1038V21.8011V22.8011H25.1159V21.8011ZM18.1038 21.8011V20.8011C17.2979 20.8011 16.7279 21.4734 16.7279 22.1977H17.7279H18.7279C18.7279 22.4819 18.4961 22.8011 18.1038 22.8011V21.8011ZM17.7279 22.1977H16.7279C16.7279 22.9138 17.29 23.5943 18.1038 23.5943V22.5943V21.5943C18.5004 21.5943 18.7279 21.9181 18.7279 22.1977H17.7279ZM18.1038 22.5943V23.5943H23.4778V22.5943V21.5943H18.1038V22.5943ZM23.4778 22.5943V23.5943C23.6405 23.5943 23.9525 23.7796 23.9525 24.2358H24.9525H25.9525C25.9525 22.8816 24.9408 21.5943 23.4778 21.5943V22.5943ZM24.9525 24.2358H23.9525C23.9525 24.6919 23.6405 24.8772 23.4778 24.8772V25.8772V26.8772C24.9408 26.8772 25.9525 25.59 25.9525 24.2358H24.9525ZM23.4778 25.8772V24.8772H11.0466V25.8772V26.8772H23.4778V25.8772ZM11.0466 25.8772V24.8772C9.70049 24.8772 8.39791 24.274 7.26935 23.01L6.52341 23.676L5.77747 24.342C7.22079 25.9585 9.04035 26.8772 11.0466 26.8772V25.8772ZM6.52341 23.676H7.52341V11.8408H6.52341H5.52341V23.676H6.52341ZM6.52341 11.8408L6.79234 12.804C10.352 11.8101 13.0193 9.8785 14.5927 7.00405L13.7155 6.5239L12.8383 6.04376C11.5701 8.36079 9.39597 10.0005 6.25448 10.8777L6.52341 11.8408ZM13.7155 6.5239L14.5929 7.00379C15.3818 5.56144 15.3558 4.26487 15.3431 3.32061L14.3432 3.33405L13.3433 3.34748C13.3557 4.27428 13.355 5.09922 12.8382 6.04402L13.7155 6.5239ZM14.3432 3.33405L15.3431 3.32208C15.3334 2.5066 15.355 2.16527 15.5303 1.87943L14.6777 1.35676L13.8252 0.834089C13.2954 1.69819 13.3351 2.65857 13.3433 3.34601L14.3432 3.33405ZM14.6777 1.35676L15.5302 1.87955C15.5481 1.85039 15.5945 1.79437 15.7437 1.79311L15.7352 0.79315L15.7268 -0.206814C14.966 -0.200397 14.2426 0.153424 13.8253 0.83397L14.6777 1.35676ZM15.7352 0.79315L15.7382 1.79315C15.9831 1.79243 16.3247 1.94119 16.5908 2.35991L17.4348 1.82355L18.2788 1.28719C17.7176 0.404143 16.7895 -0.209927 15.7323 -0.206846L15.7352 0.79315ZM17.4348 1.82355L16.5907 2.35963C16.9115 2.86482 18.2057 5.27433 16.0037 9.29821L16.8809 9.77827L17.7581 10.2583C20.3724 5.48116 18.915 2.28899 18.279 1.28746L17.4348 1.82355ZM16.8809 9.77827L16.0008 9.30347C15.7744 9.72316 15.7744 10.23 16.0008 10.6497L16.8809 10.1749L17.761 9.70007C17.8543 9.87307 17.8543 10.0801 17.761 10.2531L16.8809 9.77827ZM16.8809 10.1749L16.0008 10.6497C16.2382 11.0897 16.6962 11.3722 17.2064 11.3722V10.3722V9.37222C17.4468 9.37222 17.6567 9.50673 17.761 9.70007L16.8809 10.1749ZM17.2064 10.3722V11.3722H26.1108V10.3722V9.37222H17.2064V10.3722ZM26.1108 10.3722V11.3722C26.2736 11.3722 26.5856 11.5575 26.5856 12.0136H27.5856H28.5856C28.5856 10.6594 27.5739 9.37222 26.1108 9.37222V10.3722ZM27.5856 12.0136H26.5856C26.5856 12.4698 26.2736 12.6551 26.1108 12.6551V13.6551V14.6551C27.5739 14.6551 28.5856 13.3679 28.5856 12.0136H27.5856ZM26.1108 13.6551V12.6551H20.3593V13.6551V14.6551H26.1108V13.6551ZM20.3593 13.6551V12.6551C19.5534 12.6551 18.9834 13.3273 18.9834 14.0517H19.9834H20.9834C20.9834 14.3358 20.7516 14.6551 20.3593 14.6551V13.6551ZM19.9834 14.0517H18.9834C18.9834 14.7677 19.5455 15.4483 20.3593 15.4483V14.4483V13.4483C20.7559 13.4483 20.9834 13.772 20.9834 14.0517H19.9834ZM20.3593 14.4483V15.4483H27.1071V14.4483V13.4483H20.3593V14.4483ZM27.1071 14.4483V15.4483C27.2699 15.4483 27.5819 15.6336 27.5819 16.0897H28.5819H29.5819C29.5819 14.7355 28.5702 13.4483 27.1071 13.4483V14.4483ZM28.5819 16.0897H27.5819C27.5819 16.5458 27.2699 16.7311 27.1071 16.7311V17.7311V18.7311C28.5702 18.7311 29.5819 17.4439 29.5819 16.0897H28.5819ZM27.1071 17.7311V16.7311H20.0951V17.7311V18.7311H27.1071V17.7311ZM20.0951 17.7311V16.7311C19.2891 16.7311 18.7192 17.4033 18.7192 18.1277H19.7192H20.7192C20.7192 18.4118 20.4873 18.7311 20.0951 18.7311V17.7311ZM19.7192 18.1277H18.7192C18.7192 18.8438 19.2813 19.5243 20.0951 19.5243V18.5243V17.5243C20.4916 17.5243 20.7192 17.848 20.7192 18.1277H19.7192ZM20.0951 18.5243V19.5243H25.1126V18.5243V17.5243H20.0951V18.5243ZM25.1126 18.5243V19.5243C25.2754 19.5243 25.5874 19.7096 25.5874 20.1657H26.5874H27.5874C27.5874 18.8115 26.5757 17.5243 25.1126 17.5243V18.5243ZM26.5874 20.1657L27.465 20.6451L27.4683 20.6391L26.5907 20.1597L25.713 19.6804L25.7098 19.6863L26.5874 20.1657ZM2.88859 14.1671H3.88859V12.0987H2.88859H1.88859V14.1671H2.88859ZM2.88859 12.0987H3.88859C3.88859 12.3783 3.66103 12.7021 3.26447 12.7021V11.7021V10.7021C2.45066 10.7021 1.88859 11.3826 1.88859 12.0987H2.88859ZM3.26447 11.7021V12.7021C2.87218 12.7021 2.64036 12.3828 2.64036 12.0987H3.64036H4.64036C4.64036 11.3743 4.07042 10.7021 3.26447 10.7021V11.7021ZM3.64036 12.0987H2.64036V14.1671H3.64036H4.64036V12.0987H3.64036ZM3.64036 14.1671H2.64036C2.64036 13.8874 2.86792 13.5637 3.26447 13.5637V14.5637V15.5637C4.07828 15.5637 4.64036 14.8832 4.64036 14.1671H3.64036ZM3.26447 14.5637V13.5637C3.65677 13.5637 3.88859 13.883 3.88859 14.1671H2.88859H1.88859C1.88859 14.8915 2.45853 15.5637 3.26447 15.5637V14.5637Z" fill="#B287FF" mask="url(#path-1-inside-1_4_672)"/>
</svg>
