<svg width="32" height="32" viewBox="0 0 32 32" fill="none" xmlns="http://www.w3.org/2000/svg">
<mask id="path-1-inside-1_4_662" fill="white">
<path fill-rule="evenodd" clip-rule="evenodd" d="M25.184 10.7211V24.6208C25.184 27.2131 23.0639 29.3333 20.4714 29.3333H4.71255C2.12025 29.3333 0 27.2133 0 24.6208V8.86212C0 6.26985 2.1201 4.14962 4.71255 4.14962H18.6124C19.2027 1.71833 21.3859 0 23.8961 0C26.8986 0 29.3333 2.43489 29.3333 5.43718C29.3333 7.94718 27.6154 10.1308 25.184 10.7211ZM25.8791 5.08094H24.2527V3.45452C24.2527 3.25778 24.0929 3.09799 23.8962 3.09799C23.6994 3.09799 23.5396 3.25777 23.5396 3.45452V5.08094H21.9132C21.7164 5.08094 21.5566 5.24073 21.5566 5.43748C21.5566 5.63423 21.7164 5.79402 21.9132 5.79402H23.5396V7.42044C23.5396 7.61718 23.6994 7.77697 23.8962 7.77697C24.0929 7.77697 24.2527 7.61719 24.2527 7.42044V5.79402H25.8791C26.0759 5.79402 26.2357 5.63423 26.2357 5.43748C26.2357 5.24073 26.0759 5.08094 25.8791 5.08094ZM18.4886 4.86512H4.71264C2.51504 4.86512 0.715613 6.66444 0.715613 8.86211V24.622C0.715613 26.8196 2.51495 28.619 4.71264 28.619H20.4727C22.6703 28.619 24.4698 26.8197 24.4698 24.622V10.845C23.1247 10.9869 21.7487 10.628 20.6303 9.78498V17.2982C20.6303 18.1293 19.9518 18.8078 19.1207 18.8078H6.06484C5.23372 18.8078 4.55525 18.1293 4.55525 17.2982V8.69736C4.55525 7.86625 5.23375 7.1878 6.06484 7.1878H18.7473C18.4934 6.43898 18.4063 5.64614 18.4886 4.86512ZM19.9135 9.13989C19.5606 8.76071 19.272 8.34455 19.0478 7.90337H6.06496C5.62854 7.90337 5.27081 8.2611 5.27081 8.69752V17.2983C5.27081 17.7348 5.62854 18.0925 6.06496 18.0925H6.6719C6.67548 18.0853 6.67906 18.077 6.68383 18.0698L10.726 11.0704C10.862 10.8367 11.2054 10.8319 11.3437 11.0716L13.6331 15.0362L14.884 12.8696C15.0199 12.6359 15.3633 12.6311 15.5016 12.8708L18.516 18.0912H19.1218C19.5582 18.0912 19.9159 17.7335 19.9159 17.2971V9.13858L19.9135 9.13989ZM28.6182 5.43747C28.6182 2.82969 26.5041 0.715505 23.8962 0.715505C21.2883 0.715505 19.1742 2.82963 19.1742 5.43747C19.1742 8.04531 21.2883 10.1594 23.8962 10.1594C26.5041 10.1594 28.6182 8.04531 28.6182 5.43747ZM14.5727 18.0924L11.0336 11.9623L7.49445 18.0924H14.5727ZM14.0433 15.7505L15.3955 18.0924H17.6909L15.1916 13.7627L14.0433 15.7505ZM16.2027 12.2819C16.9599 12.2819 17.5728 11.6678 17.5728 10.9118C17.5728 10.1546 16.9587 9.54176 16.2027 9.54176C15.4456 9.54176 14.8327 10.1558 14.8327 10.9118C14.8327 11.669 15.4468 12.2819 16.2027 12.2819ZM16.2027 11.5664C16.5641 11.5664 16.8574 11.2731 16.8574 10.9118C16.8574 10.5505 16.564 10.2572 16.2027 10.2572C15.8415 10.2572 15.5481 10.5505 15.5481 10.9118C15.5481 11.2731 15.8415 11.5664 16.2027 11.5664ZM5.9623 25.2754H19.7727C19.9707 25.2754 20.1305 25.1156 20.1305 24.9176C20.1305 24.7197 19.9707 24.5599 19.7727 24.5599H5.9623C5.76436 24.5599 5.60457 24.7197 5.60457 24.9176C5.60457 25.1156 5.76436 25.2754 5.9623 25.2754ZM5.9623 21.7686H19.7727C19.9707 21.7686 20.1305 21.6088 20.1305 21.4109C20.1305 21.213 19.9707 21.0532 19.7727 21.0532H5.9623C5.76436 21.0532 5.60457 21.213 5.60457 21.4109C5.60457 21.6088 5.76436 21.7686 5.9623 21.7686Z"/>
</mask>
<path fill-rule="evenodd" clip-rule="evenodd" d="M25.184 10.7211V24.6208C25.184 27.2131 23.0639 29.3333 20.4714 29.3333H4.71255C2.12025 29.3333 0 27.2133 0 24.6208V8.86212C0 6.26985 2.1201 4.14962 4.71255 4.14962H18.6124C19.2027 1.71833 21.3859 0 23.8961 0C26.8986 0 29.3333 2.43489 29.3333 5.43718C29.3333 7.94718 27.6154 10.1308 25.184 10.7211ZM25.8791 5.08094H24.2527V3.45452C24.2527 3.25778 24.0929 3.09799 23.8962 3.09799C23.6994 3.09799 23.5396 3.25777 23.5396 3.45452V5.08094H21.9132C21.7164 5.08094 21.5566 5.24073 21.5566 5.43748C21.5566 5.63423 21.7164 5.79402 21.9132 5.79402H23.5396V7.42044C23.5396 7.61718 23.6994 7.77697 23.8962 7.77697C24.0929 7.77697 24.2527 7.61719 24.2527 7.42044V5.79402H25.8791C26.0759 5.79402 26.2357 5.63423 26.2357 5.43748C26.2357 5.24073 26.0759 5.08094 25.8791 5.08094ZM18.4886 4.86512H4.71264C2.51504 4.86512 0.715613 6.66444 0.715613 8.86211V24.622C0.715613 26.8196 2.51495 28.619 4.71264 28.619H20.4727C22.6703 28.619 24.4698 26.8197 24.4698 24.622V10.845C23.1247 10.9869 21.7487 10.628 20.6303 9.78498V17.2982C20.6303 18.1293 19.9518 18.8078 19.1207 18.8078H6.06484C5.23372 18.8078 4.55525 18.1293 4.55525 17.2982V8.69736C4.55525 7.86625 5.23375 7.1878 6.06484 7.1878H18.7473C18.4934 6.43898 18.4063 5.64614 18.4886 4.86512ZM19.9135 9.13989C19.5606 8.76071 19.272 8.34455 19.0478 7.90337H6.06496C5.62854 7.90337 5.27081 8.2611 5.27081 8.69752V17.2983C5.27081 17.7348 5.62854 18.0925 6.06496 18.0925H6.6719C6.67548 18.0853 6.67906 18.077 6.68383 18.0698L10.726 11.0704C10.862 10.8367 11.2054 10.8319 11.3437 11.0716L13.6331 15.0362L14.884 12.8696C15.0199 12.6359 15.3633 12.6311 15.5016 12.8708L18.516 18.0912H19.1218C19.5582 18.0912 19.9159 17.7335 19.9159 17.2971V9.13858L19.9135 9.13989ZM28.6182 5.43747C28.6182 2.82969 26.5041 0.715505 23.8962 0.715505C21.2883 0.715505 19.1742 2.82963 19.1742 5.43747C19.1742 8.04531 21.2883 10.1594 23.8962 10.1594C26.5041 10.1594 28.6182 8.04531 28.6182 5.43747ZM14.5727 18.0924L11.0336 11.9623L7.49445 18.0924H14.5727ZM14.0433 15.7505L15.3955 18.0924H17.6909L15.1916 13.7627L14.0433 15.7505ZM16.2027 12.2819C16.9599 12.2819 17.5728 11.6678 17.5728 10.9118C17.5728 10.1546 16.9587 9.54176 16.2027 9.54176C15.4456 9.54176 14.8327 10.1558 14.8327 10.9118C14.8327 11.669 15.4468 12.2819 16.2027 12.2819ZM16.2027 11.5664C16.5641 11.5664 16.8574 11.2731 16.8574 10.9118C16.8574 10.5505 16.564 10.2572 16.2027 10.2572C15.8415 10.2572 15.5481 10.5505 15.5481 10.9118C15.5481 11.2731 15.8415 11.5664 16.2027 11.5664ZM5.9623 25.2754H19.7727C19.9707 25.2754 20.1305 25.1156 20.1305 24.9176C20.1305 24.7197 19.9707 24.5599 19.7727 24.5599H5.9623C5.76436 24.5599 5.60457 24.7197 5.60457 24.9176C5.60457 25.1156 5.76436 25.2754 5.9623 25.2754ZM5.9623 21.7686H19.7727C19.9707 21.7686 20.1305 21.6088 20.1305 21.4109C20.1305 21.213 19.9707 21.0532 19.7727 21.0532H5.9623C5.76436 21.0532 5.60457 21.213 5.60457 21.4109C5.60457 21.6088 5.76436 21.7686 5.9623 21.7686Z" fill="black"/>
<path d="M25.184 10.7211L24.8301 9.26347L23.684 9.54174V10.7211H25.184ZM18.6124 4.14962V5.64962H19.7918L20.0701 4.50349L18.6124 4.14962ZM24.2527 5.08094H22.7527V6.58094H24.2527V5.08094ZM23.5396 5.08094V6.58094H25.0396V5.08094H23.5396ZM23.5396 5.79402H25.0396V4.29402H23.5396V5.79402ZM24.2527 5.79402V4.29402H22.7527V5.79402H24.2527ZM18.4886 4.86512L19.9803 5.02228L20.1549 3.36512H18.4886V4.86512ZM24.4698 10.845H25.9698V9.17847L24.3124 9.35331L24.4698 10.845ZM20.6303 9.78498L21.5331 8.58715L19.1303 6.77593V9.78498H20.6303ZM18.7473 7.1878V8.68779H20.84L20.1679 6.70599L18.7473 7.1878ZM19.9135 9.13989L18.8155 10.1619L19.6064 11.0115L20.6273 10.4592L19.9135 9.13989ZM19.0478 7.90337L20.3851 7.22393L19.9682 6.40337H19.0478V7.90337ZM6.6719 18.0925V19.5925H7.59897L8.01355 18.7633L6.6719 18.0925ZM6.68383 18.0698L7.93189 18.9019L7.95865 18.8618L7.98278 18.82L6.68383 18.0698ZM10.726 11.0704L9.42941 10.3162L9.42708 10.3202L10.726 11.0704ZM11.3437 11.0716L10.0445 11.8213L10.0447 11.8217L11.3437 11.0716ZM13.6331 15.0362L12.3341 15.7863L13.6333 18.036L14.9322 15.7862L13.6331 15.0362ZM14.884 12.8696L13.5873 12.1154L13.5849 12.1196L14.884 12.8696ZM15.5016 12.8708L14.2024 13.6205L14.2026 13.6209L15.5016 12.8708ZM18.516 18.0912L17.217 18.8413L17.6501 19.5912H18.516V18.0912ZM19.9159 9.13858H21.4159V6.62158L19.2022 7.81929L19.9159 9.13858ZM14.5727 18.0924V19.5924H17.1708L15.8718 17.3424L14.5727 18.0924ZM11.0336 11.9623L12.3326 11.2123L11.0336 8.96222L9.73455 11.2123L11.0336 11.9623ZM7.49445 18.0924L6.1954 17.3424L4.8964 19.5924H7.49445V18.0924ZM14.0433 15.7505L12.7444 15.0002L12.3111 15.7503L12.7443 16.5005L14.0433 15.7505ZM15.3955 18.0924L14.0965 18.8424L14.5295 19.5924H15.3955V18.0924ZM17.6909 18.0924V19.5924H20.2887L18.99 17.3425L17.6909 18.0924ZM15.1916 13.7627L16.4907 13.0128L15.1921 10.763L13.8927 13.0124L15.1916 13.7627ZM25.184 10.7211H23.684V24.6208H25.184H26.684V10.7211H25.184ZM25.184 24.6208H23.684C23.684 26.3847 22.2354 27.8333 20.4714 27.8333V29.3333V30.8333C23.8923 30.8333 26.684 28.0415 26.684 24.6208H25.184ZM20.4714 29.3333V27.8333H4.71255V29.3333V30.8333H20.4714V29.3333ZM4.71255 29.3333V27.8333C2.94863 27.8333 1.5 26.3848 1.5 24.6208H0H-1.5C-1.5 28.0417 1.29187 30.8333 4.71255 30.8333V29.3333ZM0 24.6208H1.5V8.86212H0H-1.5V24.6208H0ZM0 8.86212H1.5C1.5 7.09826 2.94854 5.64962 4.71255 5.64962V4.14962V2.64962C1.29166 2.64962 -1.5 5.44144 -1.5 8.86212H0ZM4.71255 4.14962V5.64962H18.6124V4.14962V2.64962H4.71255V4.14962ZM18.6124 4.14962L20.0701 4.50349C20.4969 2.74543 22.0774 1.5 23.8961 1.5V0V-1.5C20.6945 -1.5 17.9084 0.691232 17.1548 3.79574L18.6124 4.14962ZM23.8961 0V1.5C26.0701 1.5 27.8333 3.2633 27.8333 5.43718H29.3333H30.8333C30.8333 1.60647 27.727 -1.5 23.8961 -1.5V0ZM29.3333 5.43718H27.8333C27.8333 7.25593 26.5881 8.83661 24.8301 9.26347L25.184 10.7211L25.5379 12.1788C28.6427 11.4249 30.8333 8.63843 30.8333 5.43718H29.3333ZM25.8791 5.08094V3.58094H24.2527V5.08094V6.58094H25.8791V5.08094ZM24.2527 5.08094H25.7527V3.45452H24.2527H22.7527V5.08094H24.2527ZM24.2527 3.45452H25.7527C25.7527 2.42935 24.9213 1.59799 23.8962 1.59799V3.09799V4.59799C23.2645 4.59799 22.7527 4.0862 22.7527 3.45452H24.2527ZM23.8962 3.09799V1.59799C22.871 1.59799 22.0396 2.42933 22.0396 3.45452H23.5396H25.0396C25.0396 4.08621 24.5278 4.59799 23.8962 4.59799V3.09799ZM23.5396 3.45452H22.0396V5.08094H23.5396H25.0396V3.45452H23.5396ZM23.5396 5.08094V3.58094H21.9132V5.08094V6.58094H23.5396V5.08094ZM21.9132 5.08094V3.58094C20.888 3.58094 20.0566 4.41226 20.0566 5.43748H21.5566H23.0566C23.0566 6.06919 22.5448 6.58094 21.9132 6.58094V5.08094ZM21.5566 5.43748H20.0566C20.0566 6.46267 20.888 7.29402 21.9132 7.29402V5.79402V4.29402C22.5448 4.29402 23.0566 4.8058 23.0566 5.43748H21.5566ZM21.9132 5.79402V7.29402H23.5396V5.79402V4.29402H21.9132V5.79402ZM23.5396 5.79402H22.0396V7.42044H23.5396H25.0396V5.79402H23.5396ZM23.5396 7.42044H22.0396C22.0396 8.4456 22.871 9.27697 23.8962 9.27697V7.77697V6.27697C24.5278 6.27697 25.0396 6.78877 25.0396 7.42044H23.5396ZM23.8962 7.77697V9.27697C24.9213 9.27697 25.7527 8.44564 25.7527 7.42044H24.2527H22.7527C22.7527 6.78874 23.2645 6.27697 23.8962 6.27697V7.77697ZM24.2527 7.42044H25.7527V5.79402H24.2527H22.7527V7.42044H24.2527ZM24.2527 5.79402V7.29402H25.8791V5.79402V4.29402H24.2527V5.79402ZM25.8791 5.79402V7.29402C26.9043 7.29402 27.7357 6.46271 27.7357 5.43748H26.2357H24.7357C24.7357 4.80576 25.2475 4.29402 25.8791 4.29402V5.79402ZM26.2357 5.43748H27.7357C27.7357 4.41228 26.9043 3.58094 25.8791 3.58094V5.08094V6.58094C25.2475 6.58094 24.7357 6.06918 24.7357 5.43748H26.2357ZM18.4886 4.86512V3.36512H4.71264V4.86512V6.36512H18.4886V4.86512ZM4.71264 4.86512V3.36512C1.68665 3.36512 -0.784387 5.83597 -0.784387 8.86211H0.715613H2.21561C2.21561 7.4929 3.34343 6.36512 4.71264 6.36512V4.86512ZM0.715613 8.86211H-0.784387V24.622H0.715613H2.21561V8.86211H0.715613ZM0.715613 24.622H-0.784387C-0.784387 27.648 1.68651 30.119 4.71264 30.119V28.619V27.119C3.34338 27.119 2.21561 25.9912 2.21561 24.622H0.715613ZM4.71264 28.619V30.119H20.4727V28.619V27.119H4.71264V28.619ZM20.4727 28.619V30.119C23.4987 30.119 25.9698 27.6482 25.9698 24.622H24.4698H22.9698C22.9698 25.9913 21.842 27.119 20.4727 27.119V28.619ZM24.4698 24.622H25.9698V10.845H24.4698H22.9698V24.622H24.4698ZM24.4698 10.845L24.3124 9.35331C23.335 9.45642 22.34 9.19534 21.5331 8.58715L20.6303 9.78498L19.7274 10.9828C21.1574 12.0607 22.9145 12.5174 24.6271 12.3368L24.4698 10.845ZM20.6303 9.78498H19.1303V17.2982H20.6303H22.1303V9.78498H20.6303ZM20.6303 17.2982H19.1303C19.1303 17.2998 19.1301 17.3 19.1302 17.2995C19.1303 17.299 19.1305 17.2987 19.1305 17.2987C19.1303 17.299 19.1293 17.3012 19.1265 17.304C19.1237 17.3068 19.1215 17.3078 19.1212 17.308C19.1212 17.308 19.1215 17.3078 19.122 17.3077C19.1225 17.3076 19.1223 17.3078 19.1207 17.3078V18.8078V20.3078C20.7801 20.3078 22.1303 18.9578 22.1303 17.2982H20.6303ZM19.1207 18.8078V17.3078H6.06484V18.8078V20.3078H19.1207V18.8078ZM6.06484 18.8078V17.3078C6.06325 17.3078 6.06298 17.3076 6.06354 17.3077C6.06401 17.3078 6.06433 17.308 6.06433 17.308C6.06405 17.3078 6.06183 17.3068 6.05904 17.304C6.05625 17.3012 6.05517 17.299 6.05505 17.2987C6.05505 17.2987 6.05518 17.299 6.05527 17.2995C6.05539 17.3 6.05525 17.2998 6.05525 17.2982H4.55525H3.05525C3.05525 18.9577 4.40528 20.3078 6.06484 20.3078V18.8078ZM4.55525 17.2982H6.05525V8.69736H4.55525H3.05525V17.2982H4.55525ZM4.55525 8.69736H6.05525C6.05525 8.69578 6.05539 8.69551 6.05527 8.69608C6.05518 8.69655 6.05505 8.69687 6.05505 8.69687C6.05517 8.69659 6.05624 8.69438 6.05903 8.69159C6.06183 8.68879 6.06405 8.68772 6.06433 8.6876C6.06433 8.6876 6.06402 8.68772 6.06355 8.68782C6.06298 8.68793 6.06325 8.68779 6.06484 8.68779V7.1878V5.6878C4.40535 5.6878 3.05525 7.03779 3.05525 8.69736H4.55525ZM6.06484 7.1878V8.68779H18.7473V7.1878V5.6878H6.06484V7.1878ZM18.7473 7.1878L20.1679 6.70599C19.9838 6.16341 19.9207 5.58862 19.9803 5.02228L18.4886 4.86512L16.9968 4.70796C16.8919 5.70367 17.0029 6.71454 17.3268 7.6696L18.7473 7.1878ZM19.9135 9.13989L21.0115 8.11792C20.7541 7.84141 20.546 7.54061 20.3851 7.22393L19.0478 7.90337L17.7105 8.58281C17.9979 9.1485 18.367 9.68 18.8155 10.1619L19.9135 9.13989ZM19.0478 7.90337V6.40337H6.06496V7.90337V9.40337H19.0478V7.90337ZM6.06496 7.90337V6.40337C4.80012 6.40337 3.77081 7.43266 3.77081 8.69752H5.27081H6.77081C6.77081 9.08954 6.45695 9.40337 6.06496 9.40337V7.90337ZM5.27081 8.69752H3.77081V17.2983H5.27081H6.77081V8.69752H5.27081ZM5.27081 17.2983H3.77081C3.77081 18.5632 4.80012 19.5925 6.06496 19.5925V18.0925V16.5925C6.45695 16.5925 6.77081 16.9063 6.77081 17.2983H5.27081ZM6.06496 18.0925V19.5925H6.6719V18.0925V16.5925H6.06496V18.0925ZM6.6719 18.0925L8.01355 18.7633C8.01762 18.7552 8.0209 18.7484 8.02294 18.7442C8.02484 18.7403 8.02656 18.7367 8.0267 18.7364C8.02822 18.7333 8.02421 18.7417 8.01908 18.7519C8.00964 18.7708 7.97972 18.8302 7.93189 18.9019L6.68383 18.0698L5.43576 17.2378C5.38317 17.3167 5.34907 17.3838 5.33576 17.4104C5.32869 17.4245 5.32281 17.4368 5.32251 17.4374C5.32038 17.4419 5.32484 17.4325 5.33025 17.4217L6.6719 18.0925ZM6.68383 18.0698L7.98278 18.82L12.025 11.8205L10.726 11.0704L9.42708 10.3202L5.38487 17.3197L6.68383 18.0698ZM10.726 11.0704L12.0227 11.8245C11.5899 12.5685 10.4932 12.5987 10.0445 11.8213L11.3437 11.0716L12.6429 10.3218C11.9176 9.06505 10.134 9.10484 9.42941 10.3162L10.726 11.0704ZM11.3437 11.0716L10.0447 11.8217L12.3341 15.7863L13.6331 15.0362L14.9321 14.2861L12.6427 10.3215L11.3437 11.0716ZM13.6331 15.0362L14.9322 15.7862L16.183 13.6196L14.884 12.8696L13.5849 12.1196L12.3341 14.2862L13.6331 15.0362ZM14.884 12.8696L16.1806 13.6238C15.7479 14.3677 14.6511 14.398 14.2024 13.6205L15.5016 12.8708L16.8008 12.121C16.0755 10.8643 14.2919 10.9041 13.5873 12.1154L14.884 12.8696ZM15.5016 12.8708L14.2026 13.6209L17.217 18.8413L18.516 18.0912L19.815 17.3412L16.8006 12.1207L15.5016 12.8708ZM18.516 18.0912V19.5912H19.1218V18.0912V16.5912H18.516V18.0912ZM19.1218 18.0912V19.5912C20.3866 19.5912 21.4159 18.5619 21.4159 17.2971H19.9159H18.4159C18.4159 16.9051 18.7298 16.5912 19.1218 16.5912V18.0912ZM19.9159 17.2971H21.4159V9.13858H19.9159H18.4159V17.2971H19.9159ZM19.9159 9.13858L19.2022 7.81929L19.1997 7.8206L19.9135 9.13989L20.6273 10.4592L20.6297 10.4579L19.9159 9.13858ZM28.6182 5.43747H30.1182C30.1182 2.00126 27.3325 -0.784495 23.8962 -0.784495V0.715505V2.2155C25.6756 2.2155 27.1182 3.65812 27.1182 5.43747H28.6182ZM23.8962 0.715505V-0.784495C20.4599 -0.784495 17.6742 2.00119 17.6742 5.43747H19.1742H20.6742C20.6742 3.65807 22.1167 2.2155 23.8962 2.2155V0.715505ZM19.1742 5.43747H17.6742C17.6742 8.87375 20.4599 11.6594 23.8962 11.6594V10.1594V8.65944C22.1167 8.65944 20.6742 7.21687 20.6742 5.43747H19.1742ZM23.8962 10.1594V11.6594C27.3325 11.6594 30.1182 8.87376 30.1182 5.43747H28.6182H27.1182C27.1182 7.21687 25.6756 8.65944 23.8962 8.65944V10.1594ZM14.5727 18.0924L15.8718 17.3424L12.3326 11.2123L11.0336 11.9623L9.73455 12.7123L13.2737 18.8424L14.5727 18.0924ZM11.0336 11.9623L9.73455 11.2123L6.1954 17.3424L7.49445 18.0924L8.79349 18.8424L12.3326 12.7123L11.0336 11.9623ZM7.49445 18.0924V19.5924H14.5727V18.0924V16.5924H7.49445V18.0924ZM14.0433 15.7505L12.7443 16.5005L14.0965 18.8424L15.3955 18.0924L16.6945 17.3423L15.3423 15.0004L14.0433 15.7505ZM15.3955 18.0924V19.5924H17.6909V18.0924V16.5924H15.3955V18.0924ZM17.6909 18.0924L18.99 17.3425L16.4907 13.0128L15.1916 13.7627L13.8925 14.5125L16.3918 18.8423L17.6909 18.0924ZM15.1916 13.7627L13.8927 13.0124L12.7444 15.0002L14.0433 15.7505L15.3422 16.5008L16.4905 14.5129L15.1916 13.7627ZM16.2027 12.2819V13.7819C17.7892 13.7819 19.0728 12.4954 19.0728 10.9118H17.5728H16.0728C16.0728 10.8402 16.1307 10.7819 16.2027 10.7819V12.2819ZM17.5728 10.9118H19.0728C19.0728 9.32536 17.7863 8.04176 16.2027 8.04176V9.54176V11.0418C16.1312 11.0418 16.0728 10.9839 16.0728 10.9118H17.5728ZM16.2027 9.54176V8.04176C14.6163 8.04176 13.3327 9.32824 13.3327 10.9118H14.8327H16.3327C16.3327 10.9834 16.2748 11.0418 16.2027 11.0418V9.54176ZM14.8327 10.9118H13.3327C13.3327 12.4983 14.6192 13.7819 16.2027 13.7819V12.2819V10.7819C16.2743 10.7819 16.3327 10.8397 16.3327 10.9118H14.8327ZM16.2027 11.5664V13.0664C17.3925 13.0664 18.3574 12.1015 18.3574 10.9118H16.8574H15.3574C15.3574 10.4447 15.7356 10.0664 16.2027 10.0664V11.5664ZM16.8574 10.9118H18.3574C18.3574 9.72207 17.3924 8.75721 16.2027 8.75721V10.2572V11.7572C15.7356 11.7572 15.3574 11.379 15.3574 10.9118H16.8574ZM16.2027 10.2572V8.75721C15.013 8.75721 14.0481 9.7221 14.0481 10.9118H15.5481H17.0481C17.0481 11.379 16.6699 11.7572 16.2027 11.7572V10.2572ZM15.5481 10.9118H14.0481C14.0481 12.1016 15.0131 13.0664 16.2027 13.0664V11.5664V10.0664C16.6699 10.0664 17.0481 10.4447 17.0481 10.9118H15.5481ZM5.9623 25.2754V26.7754H19.7727V25.2754V23.7754H5.9623V25.2754ZM19.7727 25.2754V26.7754C20.7991 26.7754 21.6305 25.9441 21.6305 24.9176H20.1305H18.6305C18.6305 24.2871 19.1423 23.7754 19.7727 23.7754V25.2754ZM20.1305 24.9176H21.6305C21.6305 23.8913 20.7991 23.0599 19.7727 23.0599V24.5599V26.0599C19.1423 26.0599 18.6305 25.5482 18.6305 24.9176H20.1305ZM19.7727 24.5599V23.0599H5.9623V24.5599V26.0599H19.7727V24.5599ZM5.9623 24.5599V23.0599C4.93597 23.0599 4.10457 23.8912 4.10457 24.9176H5.60457H7.10457C7.10457 25.5482 6.59275 26.0599 5.9623 26.0599V24.5599ZM5.60457 24.9176H4.10457C4.10457 25.944 4.93592 26.7754 5.9623 26.7754V25.2754V23.7754C6.59279 23.7754 7.10457 24.2872 7.10457 24.9176H5.60457ZM5.9623 21.7686V23.2686H19.7727V21.7686V20.2686H5.9623V21.7686ZM19.7727 21.7686V23.2686C20.799 23.2686 21.6305 22.4373 21.6305 21.4109H20.1305H18.6305C18.6305 20.7804 19.1423 20.2686 19.7727 20.2686V21.7686ZM20.1305 21.4109H21.6305C21.6305 20.3845 20.7991 19.5532 19.7727 19.5532V21.0532V22.5532C19.1423 22.5532 18.6305 22.0414 18.6305 21.4109H20.1305ZM19.7727 21.0532V19.5532H5.9623V21.0532V22.5532H19.7727V21.0532ZM5.9623 21.0532V19.5532C4.93597 19.5532 4.10457 20.3845 4.10457 21.4109H5.60457H7.10457C7.10457 22.0414 6.59275 22.5532 5.9623 22.5532V21.0532ZM5.60457 21.4109H4.10457C4.10457 22.4373 4.93595 23.2686 5.9623 23.2686V21.7686V20.2686C6.59276 20.2686 7.10457 20.7804 7.10457 21.4109H5.60457Z" fill="#2E9EEE" mask="url(#path-1-inside-1_4_662)"/>
</svg>
